<svg width="54" height="12" viewBox="0 0 54 12" fill="none" xmlns="http://www.w3.org/2000/svg">
<path d="M13.5088 12V7.29907H5.40044V12H0V0H5.40044V4.39033H13.5088V0H18.8728V12H13.5088Z" fill="#434343"/>
<path d="M19.9604 12V0H25.3244V8.50633H34.2887V12H19.9604Z" fill="#434343"/>
<path d="M35.1978 12V0H44.9285C50.9165 0 53.9999 1.90214 53.9999 5.61572V6.14623C53.9999 8.65256 53.0557 11.9445 44.9285 11.9445L35.1978 12ZM40.5794 9.1468H43.8407C47.8154 9.1468 48.4206 7.17098 48.4206 5.98186V5.89004C48.4206 4.75534 47.8142 2.89061 43.8407 2.89061H40.5794V9.1468Z" fill="#434343"/>
</svg>
