<svg width="200" height="18" viewBox="0 0 200 18" fill="none" xmlns="http://www.w3.org/2000/svg">
<path d="M196.659 2.79846V3.3167H195.807V5.52783H195.202V3.3167H194.349V2.79846H196.659Z" fill="#F3F3F3"/>
<path d="M196.979 5.52783V2.79846H197.868L198.508 4.6641L199.147 2.79846H200V5.52783H199.432V3.59309L198.756 5.52783H198.294L197.584 3.62764V5.52783H196.979Z" fill="#F3F3F3"/>
<path d="M12.0983 5.28599C9.6105 5.28599 6.98051 7.25528 6.19862 9.6737L6.05646 10.1574C5.94984 10.5029 5.59444 10.7447 5.23903 10.7447H3.28431C2.89337 10.7447 2.64458 10.3992 2.75121 10.0537L3.21323 8.63724C4.35052 4.97505 8.33105 2.00384 12.0983 2.00384H31.4323C31.9299 2.00384 32.3564 1.6929 32.4985 1.24376L32.8184 0.241843C32.8539 0.138196 32.7473 0 32.6407 0H12.7381C7.83348 0 2.64458 3.86948 1.15189 8.63724L0.0145958 12.0921C-0.056485 12.4376 0.156757 12.7486 0.512161 12.7486H4.56377C4.88363 12.7486 5.13241 13.0595 5.02579 13.3704L3.7108 17.5854C3.63972 17.7927 3.81742 18 4.03066 18H22.8315C25.3194 18 27.9493 16.0307 28.7312 13.6123L31.2546 5.59693C31.3257 5.42418 31.1835 5.25144 30.9703 5.25144H12.0983V5.28599ZM26.6344 13.6468C26.2079 14.9597 24.7863 15.9962 23.4713 15.9962H7.05159C6.66065 15.9962 6.37633 15.6161 6.51849 15.2706L7.12267 13.3359C7.2293 12.9904 7.5847 12.7486 7.9401 12.7486H21.1611C21.9786 12.7486 22.6894 12.2303 22.9382 11.4703L23.0803 11.0211C23.1159 10.8829 23.0092 10.7447 22.8671 10.7447H8.61537C8.29551 10.7447 8.04672 10.4338 8.15335 10.1228L8.29551 9.6737C8.72199 8.36084 10.1436 7.32438 11.4586 7.32438H27.8072C28.2337 7.32438 28.518 7.70441 28.4114 8.08445L26.6344 13.6468Z" fill="#F3F3F3"/>
<path d="M33.2803 12.5758C33.1382 15.6507 35.5549 17.9309 38.718 17.9309H52.0101C52.2234 17.9309 52.4011 17.7236 52.3655 17.5163L52.0812 15.9271C52.0456 15.7889 51.939 15.6852 51.7969 15.6852H38.9668C37.1187 15.6852 35.626 14.4069 35.5549 12.6449C35.4838 10.3301 37.5807 8.36086 39.8908 8.36086H52.8275C52.9697 8.36086 53.1119 8.25721 53.1829 8.11901L53.8937 6.52976C54.0004 6.32247 53.8582 6.11518 53.645 6.11518H40.2107C36.6922 6.11518 33.458 9.08638 33.2803 12.5758Z" fill="#F3F3F3"/>
<path d="M70.8465 6.11518H57.9454C57.8032 6.18427 57.7321 6.25337 57.59 6.32247L56.8436 7.91172C56.737 8.11901 56.8791 8.32631 57.0924 8.32631C57.2345 8.32631 57.3767 8.32631 57.3767 8.32631H70.5267C72.0194 8.32631 73.2277 9.19003 73.6542 10.4338C73.7253 10.6411 73.512 10.8829 73.2988 10.8829H59.5802C57.6966 10.8829 55.8485 12.2303 55.422 14.0614C54.9244 16.1344 56.3816 17.8964 58.4785 17.8964H74.9337C75.1114 17.8964 75.2891 17.7582 75.2891 17.5854L76.071 12.023C76.533 8.77544 74.1873 6.11518 70.8465 6.11518ZM72.9434 15.6852H58.8694C58.1941 15.6852 57.6255 15.2015 57.661 14.5106C57.6966 13.7505 58.4074 13.1286 59.1537 13.1286H73.2988C73.4765 13.1286 73.6187 13.2668 73.5831 13.4396L73.2988 15.3743C73.2988 15.547 73.1211 15.6852 72.9434 15.6852Z" fill="#F3F3F3"/>
<path d="M96.6844 6.11518H80.3358C80.1581 6.11518 79.9804 6.25337 79.9804 6.42612L78.4166 17.5509C78.3811 17.7236 78.5232 17.8618 78.701 17.8618H80.3358C80.5135 17.8618 80.6912 17.7236 80.6912 17.5509L81.2599 13.4396C81.2954 13.2668 81.4376 13.1286 81.6153 13.1286H84.1386C84.2808 13.1286 84.423 13.2323 84.423 13.3705C84.7073 15.9616 86.8397 17.8964 89.6829 17.8964H97.3241C97.4663 17.8964 97.6084 17.7927 97.6795 17.6891L98.4614 16.0998C98.568 15.8925 98.4259 15.6852 98.2126 15.6852H90.0028C88.5101 15.6852 87.3017 14.8215 86.8752 13.5777C86.8042 13.3705 87.0174 13.1286 87.2306 13.1286H95.7603C97.9639 13.1286 99.9541 11.2284 99.883 9.01729C99.883 7.32439 98.4614 6.11518 96.6844 6.11518ZM96.0447 10.9175H81.9351C81.7574 10.9175 81.6153 10.7793 81.6508 10.6065L81.9351 8.6718C81.9707 8.49905 82.1128 8.36086 82.2905 8.36086H96.4712C97.2886 8.36086 97.8217 9.08639 97.5374 9.91556C97.3241 10.5029 96.6844 10.9175 96.0447 10.9175Z" fill="#F3F3F3"/>
<path d="M140.683 10.9175H127.676C127 10.9175 126.432 10.4338 126.467 9.74282C126.503 8.98274 127.214 8.36086 127.96 8.36086H143.384C143.527 8.36086 143.669 8.25721 143.74 8.11901L144.451 6.52976C144.557 6.32247 144.415 6.11518 144.202 6.11518C144.06 6.11518 143.953 6.11518 143.953 6.11518H128.457C126.574 6.11518 124.726 7.46258 124.299 9.29368C123.802 11.3666 125.259 13.1286 127.356 13.1286H140.47C141.145 13.1286 141.714 13.6123 141.679 14.3033C141.643 15.0634 140.932 15.6852 140.186 15.6852H124.797C124.655 15.7543 124.584 15.8234 124.441 15.8925L123.731 17.4818C123.624 17.6891 123.766 17.8964 123.979 17.8964C124.122 17.8964 124.264 17.8964 124.264 17.8964H139.902C141.998 17.8964 143.918 16.1344 144.024 14.0614C144.06 12.2649 142.567 10.9175 140.683 10.9175Z" fill="#F3F3F3"/>
<path d="M102.655 8.36086H109.799C110.332 8.36086 110.723 8.77544 110.652 9.32823L109.905 14.787C109.834 15.3052 109.337 15.7543 108.804 15.7543H102.122C101.98 15.7543 101.838 15.858 101.767 15.9962L101.091 17.5854C101.02 17.7927 101.127 18 101.34 18H119.395C119.537 18 119.679 17.8964 119.75 17.7582L120.425 16.1689C120.496 15.9616 120.39 15.7543 120.177 15.7543H113.033C112.5 15.7543 112.109 15.3397 112.18 14.787L112.926 9.32823C112.997 8.80999 113.495 8.36086 114.028 8.36086H120.71C120.852 8.36086 120.994 8.25721 121.065 8.11901L121.74 6.52976C121.811 6.32247 121.705 6.11518 121.492 6.11518H103.437C103.295 6.11518 103.153 6.21882 103.082 6.35702L102.406 7.94627C102.3 8.15356 102.442 8.36086 102.655 8.36086Z" fill="#F3F3F3"/>
<path d="M186.85 6.11518H178.747C175.442 6.11518 172.279 8.6027 171.71 11.8158C171.106 15.167 173.487 17.9309 176.935 17.9309H185.038C188.343 17.9309 191.506 15.4434 192.075 12.2649C192.643 8.87909 190.262 6.11518 186.85 6.11518ZM185.5 15.6852H177.361C175.406 15.6852 173.843 14.2687 173.949 12.3685C174.056 10.1919 176.082 8.36086 178.285 8.36086H186.424C188.379 8.36086 189.942 9.77736 189.836 11.6776C189.729 13.8541 187.703 15.6852 185.5 15.6852Z" fill="#F3F3F3"/>
<path d="M168.369 6.7025C167.623 6.04607 166.557 5.83878 165.455 6.11517L159.093 7.60077C158.88 7.63532 158.667 7.63532 158.454 7.60077L152.518 6.11517C151.523 5.83878 150.386 6.04607 149.426 6.7025C148.502 7.35893 147.898 8.36085 147.756 9.39732L146.619 17.5854C146.583 17.7582 146.725 17.8964 146.903 17.8964H148.538C148.716 17.8964 148.893 17.7582 148.893 17.5854L150.031 9.32822C150.066 9.01728 150.208 8.74089 150.457 8.53359C150.777 8.2572 151.203 8.15355 151.559 8.2572L156.783 9.57006C157.068 9.63916 157.245 9.881 157.21 10.1919L156.179 17.62C156.143 17.7927 156.286 17.9309 156.463 17.9309H158.098C158.276 17.9309 158.454 17.7927 158.454 17.62L159.484 10.1919C159.52 9.91555 159.769 9.63916 160.053 9.57006L165.668 8.2572C166.059 8.15355 166.45 8.2572 166.699 8.53359C166.877 8.74089 166.948 9.05183 166.912 9.32822L165.739 17.5854C165.704 17.7582 165.846 17.8964 166.024 17.8964H167.659C167.836 17.8964 168.014 17.7582 168.014 17.5854L169.151 9.39732C169.436 8.36085 169.116 7.35893 168.369 6.7025Z" fill="#F3F3F3"/>
</svg>
